<?xml version="1.0" encoding="UTF-8" standalone="no"?>
<!-- Created with Inkscape (http://www.inkscape.org/) -->

<svg
   width="1000"
   height="1548"
   viewBox="0 0 264.58334 409.575"
   version="1.1"
   id="svg1"
   inkscape:version="1.4.4 (dcaf3e7, 2026-05-05)"
   sodipodi:docname="fond-about3-g.svg"
   xmlns:inkscape="http://www.inkscape.org/namespaces/inkscape"
   xmlns:sodipodi="http://sodipodi.sourceforge.net/DTD/sodipodi-0.dtd"
   xmlns="http://www.w3.org/2000/svg"
   xmlns:svg="http://www.w3.org/2000/svg">
  <sodipodi:namedview
     id="namedview1"
     pagecolor="#ffffff"
     bordercolor="#000000"
     borderopacity="0.25"
     inkscape:showpageshadow="2"
     inkscape:pageopacity="0.0"
     inkscape:pagecheckerboard="0"
     inkscape:deskcolor="#d1d1d1"
     inkscape:document-units="mm"
     inkscape:zoom="5.6568543"
     inkscape:cx="348.42687"
     inkscape:cy="1320.7871"
     inkscape:window-width="1920"
     inkscape:window-height="1009"
     inkscape:window-x="-8"
     inkscape:window-y="-8"
     inkscape:window-maximized="1"
     inkscape:current-layer="g20" />
  <defs
     id="defs1" />
  <g
     inkscape:label="Calque 1"
     inkscape:groupmode="layer"
     id="layer1">
    <g
       id="g4"
       transform="translate(-236.23427,-40.848978)">
      <rect
         style="fill:#2d2d2d;fill-opacity:1;stroke:none;stroke-width:1.323;stroke-dasharray:none;paint-order:markers fill stroke"
         id="rect1"
         width="35.330853"
         height="33.858734"
         x="251.45631"
         y="245.01579"
         ry="3.58829" />
      <path
         id="rect1-9"
         style="fill:#434343;fill-opacity:1;stroke:none;stroke-width:1.323;stroke-dasharray:none;paint-order:markers fill stroke"
         d="m 255.04318,245.01958 c -1.98791,0 -3.58841,1.59998 -3.58841,3.58789 v 1.04697 h 35.33066 v -1.04697 c 0,-1.98791 -1.59999,-3.58789 -3.5879,-3.58789 z" />
    </g>
    <g
       id="g19"
       transform="translate(551.45693,1.1166925)">
      <g
         id="g4-4-4"
         transform="translate(-710.66599,-22.819519)">
        <rect
           style="fill:#434343;fill-opacity:1;stroke:none;stroke-width:1.323;stroke-dasharray:none;paint-order:markers fill stroke"
           id="rect1-3-2"
           width="35.330853"
           height="33.858734"
           x="251.45631"
           y="245.01579"
           ry="3.58829" />
        <path
           id="rect1-9-1-7"
           style="fill:#a1a1a1;fill-opacity:1;stroke:none;stroke-width:1.323;stroke-dasharray:none;paint-order:markers fill stroke"
           d="m 255.04318,245.01958 c -1.98791,0 -3.58841,1.59998 -3.58841,3.58789 v 1.04697 h 35.33066 v -1.04697 c 0,-1.98791 -1.59999,-3.58789 -3.5879,-3.58789 z" />
      </g>
      <path
         style="fill:none;fill-opacity:1;stroke:#cbcbcb;stroke-width:1.323;stroke-dasharray:none;stroke-opacity:1;paint-order:markers fill stroke"
         d="m -456.58463,230.82962 h 4.81436"
         id="path4" />
    </g>
    <g
       id="g13"
       transform="translate(-249.83796,-50.947214)"
       inkscape:label="Guillemet">
      <path
         style="fill:none;fill-opacity:1;stroke:#cbcbcb;stroke-width:1.323;stroke-dasharray:none;stroke-opacity:1;paint-order:markers fill stroke"
         d="m 276.39033,198.73606 -13.98513,7.4526 v 1.10409 l 13.6171,7.08457"
         id="path13" />
      <path
         style="fill:none;fill-opacity:1;stroke:#cbcbcb;stroke-width:1.323;stroke-dasharray:none;stroke-opacity:1;paint-order:markers fill stroke"
         d="m 282.07792,198.67464 13.98513,7.4526 v 1.10409 l -13.6171,7.08457"
         id="path13-4" />
    </g>
    <path
       style="fill:none;stroke-width:1.323;paint-order:markers fill stroke"
       d="m 33.082542,237.5307 v 83.94328 h 65.733442 v 14.53717"
       id="path5" />
    <g
       id="g10">
      <path
         style="fill:none;stroke:#434343;stroke-width:1.323;stroke-opacity:1;paint-order:markers fill stroke"
         d="m 33.050014,237.07529 v 84.5367 h 65.77473 v 15.19886 h -5.07461 17.110536"
         id="path6" />
      <path
         style="fill:none;stroke:#434343;stroke-width:1.323;stroke-opacity:1;paint-order:markers fill stroke"
         d="M 111.12091,366.99827 H 93.554959"
         id="path7" />
    </g>
    <g
       id="g20">
      <g
         id="g9">
        <path
           style="fill:none;stroke:#434343;stroke-width:1.323;stroke-opacity:1;paint-order:markers fill stroke"
           d="M 85.552692,351.12385 H 117.30152 94.660962 v -8.00227 l 13.857578,8.00069 -13.917318,8.05898 0.06099,-8.0574 13.856428,-0.002 0.0324,-8.16311 v 16.65513"
           id="path8"
           sodipodi:nodetypes="cccccccccc" />
      </g>
      <g
         id="g1">
        <path
           style="fill:#cbcbcb;fill-opacity:1;stroke:none;stroke-width:1.323;stroke-opacity:1;paint-order:markers fill stroke"
           d="m 95.322173,344.26384 c 12.494157,6.94602 0.0019,6.5e-4 12.476847,6.9422 l -12.526323,6.82274 z"
           id="path9"
           sodipodi:nodetypes="cccc" />
      </g>
    </g>
    <path
       style="fill:none;fill-opacity:1;stroke:#cbcbcb;stroke-width:1.323;stroke-opacity:1;paint-order:markers fill stroke"
       d="M 0.01653646,192.6332 H 55.939512 l 21.455713,21.45572 v 28.75217"
       id="path11" />
    <g
       id="g4-4"
       transform="translate(-76.842548,124.5509)">
      <g
         id="g22">
        <g
           id="g21"
           transform="translate(6.4633388,-124.5509)">
          <path
             style="fill:none;fill-opacity:1;stroke:#cbcbcb;stroke-width:1.323;stroke-opacity:1;paint-order:markers fill stroke"
             d="m 222.8226,411.22089 17.21216,-19.8314 h 60.05547"
             id="path15" />
          <ellipse
             style="fill:#cbcbcb;fill-opacity:1;stroke:none;stroke-width:1.19021;stroke-opacity:1;paint-order:markers fill stroke"
             id="path16-4"
             cx="306.55444"
             cy="391.23489"
             rx="6.9048901"
             ry="6.9048924" />
        </g>
        <rect
           style="fill:#434343;fill-opacity:1;stroke:none;stroke-width:1.323;stroke-dasharray:none;paint-order:markers fill stroke"
           id="rect1-3"
           width="35.330853"
           height="33.858734"
           x="251.45631"
           y="245.01579"
           ry="3.58829" />
      </g>
      <path
         id="rect1-9-1"
         style="fill:#a1a1a1;fill-opacity:1;stroke:none;stroke-width:1.323;stroke-dasharray:none;paint-order:markers fill stroke"
         d="m 255.04318,245.01958 c -1.98791,0 -3.58841,1.59998 -3.58841,3.58789 v 1.04697 h 35.33066 v -1.04697 c 0,-1.98791 -1.59999,-3.58789 -3.5879,-3.58789 z" />
    </g>
    <g
       id="g18">
      <path
         id="path17"
         style="baseline-shift:baseline;display:inline;overflow:visible;opacity:1;vector-effect:none;fill:#cbcbcb;paint-order:markers fill stroke;enable-background:accumulate;stop-color:#000000;stop-opacity:1"
         d="m 98.314412,208.31648 -0.03721,1.57251 46.822265,0.001 v -1.3224 z M 262.29872,0.42167969 239.22261,23.49624 H 129.30477 l -67.853741,77.84538 v 71.00807 H -0.09353434 v 1.3224 H 61.839636 l 18.109489,18.11104 18.107422,18.10742 0.220658,-0.002 0.03721,-1.57252 h 0.03927 L 81.273592,191.23432 V 98.939697 L 138.5564,34.056836 h 56.39087 v -1.3224 H 137.96109 L 79.949125,98.439469 V 189.91192 L 62.775496,172.73829 V 101.83771 L 129.90628,24.818123 H 239.77141 L 263.23458,1.3554728 Z"
         sodipodi:nodetypes="cccccccccccccccccccccccccccccccc" />
      <ellipse
         style="fill:#cbcbcb;fill-opacity:1;stroke:none;stroke-width:1.19021;stroke-opacity:1;paint-order:markers fill stroke"
         id="path16"
         cx="149.84579"
         cy="209.11246"
         rx="6.9048901"
         ry="6.9048924" />
    </g>
    <ellipse
       style="fill:#cbcbcb;fill-opacity:1;stroke:none;stroke-width:1.19021;stroke-opacity:1;paint-order:markers fill stroke"
       id="path16-6"
       cx="77.416344"
       cy="249.5278"
       rx="6.9048901"
       ry="6.9048924" />
    <ellipse
       style="fill:#cbcbcb;fill-opacity:1;stroke:none;stroke-width:1.19021;stroke-opacity:1;paint-order:markers fill stroke"
       id="path16-1"
       cx="200.57988"
       cy="33.347183"
       rx="6.9048901"
       ry="6.9048924" />
  </g>
</svg>
