<?xml version="1.0" encoding="UTF-8" standalone="no"?>
<!-- Created with Inkscape (http://www.inkscape.org/) -->

<svg
   width="512"
   height="512"
   viewBox="0 0 135.46666 135.46667"
   version="1.1"
   id="svg1"
   xml:space="preserve"
   inkscape:version="1.4 (e7c3feb100, 2024-10-09)"
   sodipodi:docname="favicon.svg"
   xmlns:inkscape="http://www.inkscape.org/namespaces/inkscape"
   xmlns:sodipodi="http://sodipodi.sourceforge.net/DTD/sodipodi-0.dtd"
   xmlns="http://www.w3.org/2000/svg"
   xmlns:svg="http://www.w3.org/2000/svg"><sodipodi:namedview
     id="namedview1"
     pagecolor="#ffffff"
     bordercolor="#000000"
     borderopacity="0.25"
     inkscape:showpageshadow="2"
     inkscape:pageopacity="0.0"
     inkscape:pagecheckerboard="0"
     inkscape:deskcolor="#d1d1d1"
     inkscape:document-units="mm"
     inkscape:zoom="0.84709717"
     inkscape:cx="-107.42569"
     inkscape:cy="229.01741"
     inkscape:window-width="1920"
     inkscape:window-height="1051"
     inkscape:window-x="0"
     inkscape:window-y="32"
     inkscape:window-maximized="1"
     inkscape:current-layer="layer1" /><defs
     id="defs1" /><g
     inkscape:label="Calque 1"
     inkscape:groupmode="layer"
     id="layer1"
     style="display:inline"><rect
       style="display:inline;fill:#83e0ef;fill-opacity:1;stroke:none;stroke-width:1.31972;paint-order:fill markers stroke"
       id="rect1"
       width="134.14694"
       height="134.14694"
       x="0.65986001"
       y="0.65986001"
       ry="20.191296" /><path
       id="path1"
       style="display:inline;fill:#114779;fill-opacity:1;stroke:none;stroke-width:1.32292;paint-order:fill markers stroke"
       d="m 40.798027,25.226367 c 0,0 -6.747909,0.103944 -6.747909,6.747909 v 68.307974 c 0,0 0.311799,6.69572 6.696232,6.69572 h 17.076994 c 0,0 5.447225,-0.70406 10.360091,-3.85352 0.07733,0.0779 4.255723,4.24264 13.797607,4.24264 9.631659,0 19.935218,-6.42133 19.935218,-17.994251 v -5.002278 c 0,0 4.97781,-0.07493 7.46673,-0.07493 2.12768,0 3.80331,0.123652 1.21491,-3.223059 L 96.971342,64.087044 c -0.828057,-0.88749 -1.573783,-2.528705 -3.641121,0.04961 -2.047655,2.553766 -8.727398,10.518944 -13.73818,16.42587 -1.55873,1.837498 -3.038468,3.628028 0,3.583761 3.038468,-0.04427 8.206734,0 8.206734,0 0,0 2.835239,18.357355 -16.384529,16.400545 2.50751,-2.520829 4.382255,-5.988446 4.472078,-10.749727 0.255388,-13.537375 -15.801888,-12.28066 -15.986621,-1.660881 -0.06681,3.84046 1.141534,6.229082 2.075842,8.097697 0.934307,1.868614 3.400826,4.324281 3.400826,4.324281 0,0 -2.833568,2.83859 -7.553027,2.83859 H 41.420728 c 0,0 -3.425631,0.21957 -3.425631,-3.426148 V 32.389237 c 0,0 0.207634,-3.737239 3.737239,-3.737239 h 29.897917 v 15.156697 c 0,0 -0.234655,6.124691 6.124691,6.124691 H 92.49668 v 6.644039 c 0,0 0.311037,2.076359 2.075842,2.076359 1.764803,0 2.284098,-1.66088 2.284098,-1.66088 v -9.23923 L 74.329313,25.226367 Z m 34.888826,6.009452 14.698328,14.698328 H 78.502702 c 0,0 -2.900082,-0.150044 -2.900082,-2.900081 0,-2.750037 0.08423,-11.798247 0.08423,-11.798247 z m 19.084623,36.350237 11.012764,13.332002 c 0,0 -4.01154,0.0072 -5.56452,0 -1.512795,-0.007 -1.477943,1.477946 -1.477943,1.477946 0,0 3.562063,21.825516 -20.229406,21.157656 0,0 12.783533,-3.638925 13.012792,-15.042267 v -5.565035 c 0,0 0.316495,-2.057239 -2.057756,-2.057239 H 84.27961 Z M 68.225293,83.499813 c 3.56775,0 4.859135,2.528189 4.859135,5.874577 0,3.181623 -0.81544,4.387178 -1.981275,5.993432 -0.723754,0.997168 -3.275769,3.413229 -3.275769,3.413229 0,0 -2.192279,-2.374755 -2.872176,-3.471623 -0.973184,-1.570026 -2.089278,-3.384925 -2.089278,-5.821867 0,-2.012649 0.578416,-5.987748 5.359363,-5.987748 z"
       sodipodi:nodetypes="cscsccsscsccsssccssscscscsccsccscccccccsccssccscsccssscssss" /></g></svg>
